<svg xmlns="http://www.w3.org/2000/svg" viewBox="0 0 274 78">
  <style type="text/css">
    <![CDATA[
    path {
      fill: #fff;
    }
    #square {
      transform: translate(0,0);
    }
    @media screen and (max-height: 40px) {
      #square {
        transform: translate(98px);
      }
      #linden, #ceramics {
        opacity: 0;
      }
    }
    ]]>
  </style>
  <g id="square">
    <path d="M-.5 0v78h78V0h-78zm72 72h-66V6h66v66z"/>
    <path d="M14 64V14h6v44.3h26V64H14z"/>
    <path d="M42.6 33c.6.7 1.1 1.4 1.6 2.1.5.7 1.1 1.4 1.7 2.1-1.1.9-2.4 1.6-3.8 2.1s-2.9.8-4.5.8c-1.8 0-3.6-.3-5.2-1s-3-1.6-4.2-2.8c-1.2-1.2-2.1-2.6-2.8-4.1-.7-1.6-1-3.2-1-5 0-1.8.3-3.4 1-5s1.6-3 2.8-4.1c1.2-1.2 2.6-2.1 4.2-2.8 1.6-.7 3.3-1 5.2-1 1.6 0 3.1.3 4.6.8 1.4.5 2.7 1.2 3.8 2.1-.6.7-1.1 1.4-1.7 2-.6.7-1.1 1.3-1.7 2-1.4-1.1-3.1-1.6-4.9-1.6-2.3 0-4.1.7-5.6 2.1-1.4 1.4-2.1 3.2-2.1 5.4s.7 4 2.1 5.4c1.4 1.5 3.3 2.2 5.6 2.2 1.9 0 3.5-.6 4.9-1.7z"/>
  </g>
  <g id="linden">
    <path d="M91 42V15.8h4.4v22.1h12.7V42H91zM112.6 15.8h4.4V42h-4.4V15.8zM147.2 15.8v27.5c-.2-.2-.5-.6-1.1-1.2L144 40c-.8-.8-1.8-1.7-2.8-2.7-1-1-2.1-2-3.1-3-1.1-1-2.1-2-3.1-2.9s-1.9-1.8-2.8-2.6l-2.1-2.1c-.6-.6-.9-1-1.1-1.2 0 0-.1-.2-.3-.4-.2-.2-.3-.4-.4-.6l.1 1.2V42H124V14.6c.2.2.5.6 1.1 1.2.6.6 1.3 1.2 2.1 2s1.8 1.7 2.8 2.6c1 .9 2.1 1.9 3.1 2.9 1.1 1 2.1 1.9 3.1 2.9 1 .9 1.9 1.8 2.8 2.6.8.8 1.5 1.4 2.1 2 .6.6.9.9 1.1 1.2l.7 1-.1-1.2v-16h4.4zM154.1 15.8h6.8c2.6 0 4.9.4 6.7 1.2 1.8.8 3.3 1.8 4.5 3.1 1.2 1.3 2 2.7 2.5 4.3.5 1.6.8 3.2.8 4.8 0 2-.4 3.7-1.1 5.3-.7 1.6-1.7 2.9-2.9 4s-2.6 2-4.2 2.5-3.2 1-5 1h-8.1V15.8zm7.4 22c1.4 0 2.6-.2 3.8-.6 1.2-.4 2.1-1 3-1.7.8-.8 1.5-1.7 2-2.8.5-1.1.7-2.4.7-3.8 0-1.6-.3-3-.8-4.2-.6-1.1-1.3-2.1-2.1-2.8s-1.8-1.2-2.9-1.5c-1.1-.3-2.1-.5-3-.5h-3.5v17.8h2.8zM180.7 42V15.8h17.4v4h-13v7.1h11.6V31h-11.6v7h13.5v4h-17.9zM227.1 15.8v27.5c-.2-.2-.5-.6-1.1-1.2l-2.1-2.1c-.8-.8-1.8-1.7-2.8-2.7-1-1-2.1-2-3.1-3-1.1-1-2.1-2-3.1-2.9s-1.9-1.8-2.8-2.6l-2.1-2.1c-.6-.6-.9-1-1.1-1.2 0 0-.1-.2-.3-.4-.2-.2-.3-.4-.4-.6l.1 1.2V42h-4.4V14.6c.2.2.5.6 1.1 1.2.6.6 1.3 1.2 2.1 2s1.8 1.7 2.8 2.6c1 .9 2.1 1.9 3.1 2.9 1.1 1 2.1 1.9 3.1 2.9 1 .9 1.9 1.8 2.8 2.6.8.8 1.5 1.4 2.1 2 .6.6.9.9 1.1 1.2l.7 1-.1-1.2v-16h4.4z"/>
  </g>
  <g id="ceramics">
    <path d="M110.8 75.1c-.3.2-.7.4-1.2.7-.5.3-1.1.5-1.8.7-.7.2-1.5.4-2.4.6-.9.2-1.8.2-2.8.2-2.1 0-3.9-.4-5.5-1.1-1.6-.7-3-1.7-4.1-2.9-1.1-1.2-2-2.6-2.6-4.2-.6-1.6-.9-3.3-.9-5.1 0-2 .4-3.8 1.1-5.5s1.7-3.1 2.9-4.3c1.2-1.2 2.7-2.2 4.3-2.8 1.6-.7 3.4-1 5.3-1 .7 0 1.4.1 2.2.2.7.1 1.4.2 2.1.4.6.2 1.2.4 1.7.6.5.2.8.4 1.1.7-.2.3-.4.6-.5.8s-.2.4-.4.7c-.1.2-.3.5-.4.8-.2.3-.4.7-.7 1.2-.3-.2-.6-.4-1-.5-.4-.1-.8-.3-1.3-.3-.4-.1-.9-.1-1.4-.2-.5 0-.9-.1-1.2-.1-1.3 0-2.6.3-3.7.8s-2.1 1.2-3 2c-.8.8-1.5 1.8-1.9 2.9-.5 1.1-.7 2.2-.7 3.4 0 1.2.2 2.3.7 3.4.4 1.1 1.1 2.1 1.9 2.9.8.8 1.8 1.5 2.9 2 1.1.5 2.3.8 3.7.8.8 0 1.5-.1 2.2-.2.7-.2 1.4-.3 1.9-.5s1-.4 1.4-.6c.3-.2.5-.3.6-.4l1.5 3.9zM115 77V50.8h17.4v4h-13v7.1H131V66h-11.6v7h13.5v4H115zM138.1 77V50.8h7.4c1.4 0 2.8.2 3.9.6 1.2.4 2.2.9 3 1.7.8.7 1.5 1.6 1.9 2.7.5 1.1.7 2.2.7 3.6 0 .7-.1 1.4-.2 2.2-.1.7-.4 1.4-.7 2.1-.3.7-.7 1.3-1.2 1.9-.5.6-1.1 1-1.8 1.5.5.8 1 1.7 1.5 2.5l1.5 2.4c.5.8 1 1.7 1.6 2.5.6.9 1.2 1.8 1.8 2.8h-5.3c-1.1-1.7-2.1-3.3-3.1-4.8s-1.9-2.9-2.8-4.3H142.2v9h-4.1zm4.4-13.2h3.5c.9 0 1.7-.2 2.3-.5.6-.3 1.1-.7 1.4-1.1.4-.4.6-.9.8-1.4.1-.5.2-1 .2-1.4 0-.4-.1-.9-.2-1.4-.1-.5-.4-1-.7-1.5-.3-.5-.8-.8-1.4-1.2-.6-.3-1.4-.5-2.3-.5h-3.6v9zM178.1 77c-.1-.2-.2-.5-.4-.9s-.4-1-.7-1.6c-.3-.6-.6-1.3-.9-2.1-.3-.8-.6-1.5-1-2.4h-9l-2.9 6.9h-4.4c.1-.2.3-.8.7-1.6.4-.9.8-1.9 1.4-3.2.5-1.3 1.1-2.7 1.8-4.2s1.3-3.1 2-4.7 1.4-3.2 2-4.7c.7-1.5 1.3-3 1.8-4.2s1-2.3 1.3-3.2c.4-.9.6-1.4.7-1.6.1.2.3.8.7 1.6.4.9.8 1.9 1.4 3.2s1.1 2.7 1.8 4.2 1.3 3.1 2 4.7 1.4 3.2 2 4.7c.7 1.5 1.3 3 1.8 4.2.5 1.3 1 2.3 1.4 3.2.4.9.6 1.4.7 1.6h-4.2zm-10.4-10.6h6l-2.6-6.3s-.1-.2-.2-.5-.2-.6-.2-.8c0 .2-.1.5-.2.8-.1.3-.1.5-.1.5l-2.7 6.3zM186.4 49.6c.1.2.4.5.8 1.1.4.6.9 1.3 1.5 2.2.6.9 1.3 1.8 2.1 2.8.8 1 1.5 2.1 2.3 3.2.8 1.1 1.5 2.1 2.3 3.1.7 1 1.4 2 2 2.8.6.8 1.1 1.5 1.5 2.1.4.6.7.9.8 1.1 0-.1.3-.4.6-.9s.9-1.2 1.5-2 1.3-1.7 2-2.8c.7-1 1.5-2.1 2.3-3.2s1.6-2.1 2.3-3.2c.8-1.1 1.5-2 2.1-2.9s1.2-1.6 1.6-2.2c.4-.6.7-1 .8-1.2V77h-4.7V63.6c0-.2 0-.4.1-.6 0-.2.1-.3.1-.4l-8.7 12.5c-.1-.1-.4-.5-.9-1.2-.5-.6-1-1.4-1.7-2.3-.6-.9-1.3-1.8-2.1-2.9s-1.4-2-2-2.8c-.6-.9-1.2-1.6-1.6-2.2s-.7-1-.7-1.1c0 0 0 .2.1.4s.1.4.1.6V77h-4.4V49.6zM219.8 50.8h4.4V77h-4.4V50.8zM251 75.1c-.3.2-.7.4-1.2.7-.5.3-1.1.5-1.8.7-.7.2-1.5.4-2.4.6-.9.2-1.8.2-2.8.2-2.1 0-3.9-.4-5.5-1.1-1.6-.7-3-1.7-4.1-2.9-1.1-1.2-2-2.6-2.6-4.2-.6-1.6-.9-3.3-.9-5.1 0-2 .4-3.8 1.1-5.5s1.7-3.1 2.9-4.3c1.2-1.2 2.7-2.2 4.3-2.8 1.6-.7 3.4-1 5.3-1 .7 0 1.4.1 2.2.2.7.1 1.4.2 2.1.4.6.2 1.2.4 1.7.6.5.2.8.4 1.1.7-.2.3-.4.6-.5.8s-.2.4-.4.7c-.1.2-.3.5-.4.8-.2.3-.4.7-.7 1.2-.3-.2-.6-.4-1-.5-.4-.1-.8-.3-1.3-.3-.4-.1-.9-.1-1.4-.2-.5 0-.9-.1-1.2-.1-1.3 0-2.6.3-3.7.8s-2.1 1.2-3 2c-.8.8-1.5 1.8-1.9 2.9-.5 1.1-.7 2.2-.7 3.4 0 1.2.2 2.3.7 3.4.4 1.1 1.1 2.1 1.9 2.9.8.8 1.8 1.5 2.9 2 1.1.5 2.3.8 3.7.8.8 0 1.5-.1 2.2-.2.7-.2 1.4-.3 1.9-.5s1-.4 1.4-.6c.3-.2.5-.3.6-.4l1.5 3.9zM270.6 52.2l-1.6 3.6c-1-.4-2-.6-3-.9s-1.9-.3-2.7-.3c-1.5 0-2.6.3-3.5.9s-1.3 1.3-1.3 2.2c0 .8.3 1.4 1 1.9.6.5 1.4.9 2.4 1.3s2 .8 3.1 1.2c1.1.4 2.2.9 3.1 1.5s1.8 1.4 2.4 2.4c.6 1 1 2.2 1 3.7 0 1.2-.2 2.2-.6 3.1-.4.9-1.1 1.7-1.9 2.4s-1.9 1.2-3.2 1.6c-1.3.4-2.8.6-4.5.6-1.1 0-2-.1-2.9-.2-.9-.1-1.6-.3-2.3-.5-.7-.2-1.3-.5-1.8-.7-.5-.3-1-.5-1.4-.7l1.9-3.9c1 .6 2.1 1 3.2 1.3 1.2.3 2.2.5 3.1.5.4 0 1 0 1.7-.1s1.4-.3 2-.5c.6-.3 1.2-.6 1.7-1.1.5-.5.7-1 .7-1.8s-.3-1.5-1-2.1-1.4-1-2.4-1.4c-1-.4-2-.8-3.1-1.2s-2.2-.9-3.1-1.5c-1-.6-1.8-1.3-2.4-2.1-.6-.8-1-1.9-1-3.1 0-.9.2-1.8.5-2.7.4-.9.9-1.7 1.6-2.4s1.6-1.3 2.7-1.7c1.1-.4 2.4-.6 3.9-.6.9 0 1.8.1 2.7.2.9.2 1.7.3 2.4.5s1.3.4 1.7.6c.6-.1.8 0 .9 0z"/>
  </g>
</svg>
